<svg width="160" height="160" viewBox="0 0 160 160" fill="none" xmlns="http://www.w3.org/2000/svg">
    <path
        d="M79.9997 133.333C83.6816 133.333 86.6663 130.349 86.6663 126.667C86.6663 122.985 83.6816 120 79.9997 120C76.3178 120 73.333 122.985 73.333 126.667C73.333 130.349 76.3178 133.333 79.9997 133.333Z"
        fill="#546E7A" />
    <path
        d="M82.9333 73.3333L70.2666 60.7333L53.8666 44.4666L43.5333 34.1333L31.3999 21.9333C30.7784 21.3117 30.0404 20.8186 29.2283 20.4822C28.4161 20.1458 27.5457 19.9727 26.6666 19.9727C25.7875 19.9727 24.9171 20.1458 24.1049 20.4822C23.2928 20.8186 22.5549 21.3117 21.9333 21.9333C20.6779 23.1886 19.9727 24.8913 19.9727 26.6666C19.9727 28.4419 20.6779 30.1446 21.9333 31.3999L31.1333 40.5333L40.8666 50.2666L55.7333 65.1999L66.0666 75.4666L84.3333 93.7333L102.933 112.4L128.6 138.067C129.22 138.691 129.957 139.187 130.769 139.526C131.582 139.864 132.453 140.039 133.333 140.039C134.213 140.039 135.085 139.864 135.897 139.526C136.71 139.187 137.447 138.691 138.067 138.067C138.691 137.447 139.187 136.71 139.526 135.897C139.864 135.085 140.039 134.213 140.039 133.333C140.039 132.453 139.864 131.582 139.526 130.769C139.187 129.957 138.691 129.22 138.067 128.6L82.9333 73.3333ZM144.8 52.8666C127.436 36.0277 104.188 26.6279 79.9999 26.6666C69.9364 26.6939 59.9425 28.337 50.3999 31.5333L61.1999 42.3333C74.2786 39.0653 87.9746 39.1869 100.993 42.6865C114.012 46.1861 125.923 52.9481 135.6 62.3333C136.836 63.5245 138.483 64.1931 140.2 64.1999C141.098 64.1965 141.986 64.0117 142.811 63.6566C143.636 63.3014 144.38 62.7833 145 62.1333C146.175 60.8644 146.811 59.1885 146.774 57.4595C146.736 55.7305 146.029 54.0836 144.8 52.8666ZM25.4666 44.3333C21.8495 46.9347 18.4188 49.7861 15.1999 52.8666C14.0749 54.1176 13.4644 55.7478 13.4911 57.4301C13.5177 59.1124 14.1795 60.7225 15.3436 61.9372C16.5078 63.152 18.0882 63.8816 19.7679 63.9798C21.4475 64.078 23.1022 63.5375 24.3999 62.4666C27.7246 59.3248 31.2912 56.4493 35.0666 53.8666L25.4666 44.3333ZM113.333 87.5999C113.951 88.2299 114.687 88.731 115.499 89.0743C116.312 89.4176 117.185 89.5963 118.067 89.5999C119.369 89.595 120.642 89.2084 121.728 88.488C122.813 87.7676 123.664 86.7449 124.174 85.5463C124.685 84.3477 124.833 83.0258 124.601 81.7439C124.369 80.462 123.766 79.2763 122.867 78.3333C117.306 72.5717 110.649 67.9813 103.287 64.8327C95.9247 61.6841 88.0069 60.0409 79.9999 59.9999H78.9333L94.5999 75.6666C101.714 78.0787 108.14 82.1724 113.333 87.5999ZM49.5333 68.3999C44.8747 71.1133 40.6124 74.4559 36.8666 78.3333C35.6378 79.6328 34.9755 81.3673 35.0255 83.1552C35.0755 84.943 35.8337 86.6378 37.1333 87.8666C38.4328 89.0954 40.1673 89.7577 41.9552 89.7077C43.743 89.6577 45.4378 88.8995 46.6666 87.5999C50.5505 83.7387 55.0582 80.5607 59.9999 78.1999L49.5333 68.3999ZM56.8666 102.667C55.5936 103.895 54.8608 105.58 54.8296 107.349C54.8141 108.225 54.9713 109.095 55.2922 109.91C55.6131 110.726 56.0915 111.47 56.6999 112.1C57.3084 112.73 58.0351 113.235 58.8384 113.584C59.6418 113.934 60.5061 114.122 61.3821 114.137C63.1512 114.168 64.8602 113.495 66.1333 112.267C69.5654 109.101 73.9794 107.209 78.6385 106.906C83.2976 106.602 87.9197 107.906 91.7333 110.6L74.9333 93.7999C68.1414 94.8235 61.8315 97.9202 56.8666 102.667Z"
        fill="#546E7A" />
</svg>
